<?xml version="1.0" standalone="no"?>
<!DOCTYPE svg PUBLIC "-//W3C//DTD SVG 20010904//EN"
 "http://www.w3.org/TR/2001/REC-SVG-20010904/DTD/svg10.dtd">
<svg version="1.0" xmlns="http://www.w3.org/2000/svg"
 width="1563.000000pt" height="1563.000000pt" viewBox="0 0 1563.000000 1563.000000"
 preserveAspectRatio="xMidYMid meet">

<g transform="translate(0.000000,1563.000000) scale(0.100000,-0.100000)"
fill="#000000" stroke="none">
<path d="M6375 10170 c-149 -19 -313 -75 -443 -152 -73 -43 -237 -207 -280
-280 -105 -178 -149 -401 -123 -612 24 -184 74 -317 184 -484 181 -275 414
-516 906 -938 102 -87 233 -205 293 -262 l108 -105 0 -671 c-1 -724 -4 -772
-53 -880 -14 -30 -35 -59 -46 -65 -13 -7 -21 -22 -21 -36 l0 -25 320 0 320 0
0 23 c0 16 -9 28 -26 35 -35 17 -70 97 -89 207 -12 74 -15 168 -13 527 l3 438
63 -95 c142 -212 225 -410 257 -620 21 -133 16 -418 -9 -560 -96 -533 -419
-921 -891 -1068 -183 -57 -450 -84 -667 -67 -175 13 -274 32 -424 81 -440 143
-749 450 -901 894 -56 165 -82 337 -83 542 0 284 44 479 166 728 165 338 430
588 761 719 119 47 224 74 348 89 81 10 100 16 103 30 3 15 -6 17 -70 17 -178
0 -476 -50 -665 -111 -509 -165 -857 -549 -948 -1044 -23 -123 -31 -398 -15
-537 23 -208 79 -395 171 -566 297 -555 865 -896 1571 -942 299 -20 557 10
818 96 709 233 1135 797 1200 1589 25 301 -22 566 -143 800 -87 167 -244 386
-394 547 -40 43 -73 82 -73 87 0 15 434 431 442 423 17 -18 1056 -1867 1095
-1949 48 -100 83 -196 83 -224 0 -11 -9 -24 -20 -31 -11 -7 -20 -23 -20 -35
l0 -23 345 0 c328 0 345 1 345 18 0 11 -20 31 -49 51 -78 50 -184 187 -324
418 -29 48 -305 535 -612 1082 l-558 994 384 382 c479 476 612 589 859 725
111 62 178 87 275 104 60 10 70 15 73 34 l3 22 -440 0 -441 0 0 -25 c0 -23 4
-25 43 -25 49 -1 110 -21 138 -46 27 -25 24 -71 -11 -140 -68 -137 -155 -230
-906 -983 l-742 -745 -71 69 -71 68 0 736 c0 710 3 803 30 901 12 43 13 44 22
20 5 -14 20 -61 33 -105 13 -44 24 -68 24 -54 1 34 49 828 54 892 l4 48 -26
-24 c-54 -51 -89 -62 -191 -61 -112 2 -210 21 -375 74 -239 77 -432 103 -610
80z m316 -60 c105 -26 188 -66 291 -140 145 -104 312 -292 384 -432 l24 -48
-245 0 -245 0 0 -25 c0 -14 8 -29 21 -36 11 -6 32 -35 46 -65 49 -107 52 -163
53 -792 l0 -583 -87 68 c-651 503 -941 789 -1073 1058 -63 128 -82 210 -82
350 0 308 150 515 449 616 151 51 332 63 464 29z"/>
</g>
</svg>
